<mxfile type="github" version="14.2.9" host="app.diagrams.net" modified="2021-02-06T19:48:49.701Z" agent="5.0 (Windows NT 10.0; Win64; x64) AppleWebKit/537.36 (KHTML, like Gecko) Chrome/70.0.3538.102 Safari/537.36 Edge/18.18363" etag="3TFvKL-5J8ZbUrdlkdgo">
  <diagram id="zzBjoj9Kv_qoTOmiWQ99" name="Page-1">
    <mxGraphModel grid="1" shadow="0" math="0" pageHeight="1169" pageWidth="827" pageScale="1" page="1" fold="1" arrows="1" connect="1" tooltips="1" guides="1" gridSize="10" dy="480" dx="868">
      <root>
        <mxCell id="0" />
        <mxCell id="1" parent="0" />
        <mxCell id="fqFjoD4bvNdqLyDosjun-41" value="Professor (Supervise)" parent="1" style="text;html=1;strokeColor=none;fillColor=none;align=center;verticalAlign=middle;whiteSpace=wrap;rounded=0;rotation=-90;" vertex="1">
          <mxGeometry as="geometry" y="459.5" x="575.5" height="20" width="139" />
        </mxCell>
        <mxCell id="fqFjoD4bvNdqLyDosjun-1" value="" parent="1" edge="1" style="rounded=0;html=1;jettySize=auto;orthogonalLoop=1;fontSize=11;endArrow=block;endFill=0;endSize=8;strokeWidth=1;shadow=0;labelBackgroundColor=none;edgeStyle=orthogonalEdgeStyle;">
          <mxGeometry as="geometry" relative="1">
            <mxPoint as="sourcePoint" y="40" x="100" />
          </mxGeometry>
        </mxCell>
        <mxCell id="fqFjoD4bvNdqLyDosjun-2" value="Yes" parent="1" edge="1" style="rounded=0;html=1;jettySize=auto;orthogonalLoop=1;fontSize=11;endArrow=block;endFill=0;endSize=8;strokeWidth=1;shadow=0;labelBackgroundColor=none;edgeStyle=orthogonalEdgeStyle;">
          <mxGeometry as="geometry" relative="1" y="20">
            <mxPoint as="offset" />
            <mxPoint as="sourcePoint" y="170" x="100" />
          </mxGeometry>
        </mxCell>
        <mxCell id="fqFjoD4bvNdqLyDosjun-3" value="No" parent="1" edge="1" style="edgeStyle=orthogonalEdgeStyle;rounded=0;html=1;jettySize=auto;orthogonalLoop=1;fontSize=11;endArrow=block;endFill=0;endSize=8;strokeWidth=1;shadow=0;labelBackgroundColor=none;">
          <mxGeometry as="geometry" relative="1" y="10">
            <mxPoint as="offset" />
            <mxPoint as="sourcePoint" y="130" x="150" />
          </mxGeometry>
        </mxCell>
        <mxCell id="fqFjoD4bvNdqLyDosjun-4" value="Yes" parent="1" edge="1" style="edgeStyle=orthogonalEdgeStyle;rounded=0;html=1;jettySize=auto;orthogonalLoop=1;fontSize=11;endArrow=block;endFill=0;endSize=8;strokeWidth=1;shadow=0;labelBackgroundColor=none;">
          <mxGeometry as="geometry" relative="1" y="10">
            <mxPoint as="offset" />
            <mxPoint as="sourcePoint" y="250" x="150" />
          </mxGeometry>
        </mxCell>
        <mxCell id="fqFjoD4bvNdqLyDosjun-5" value="Professor" parent="1" style="rounded=0;whiteSpace=wrap;html=1;" vertex="1">
          <mxGeometry as="geometry" y="340" x="146" height="50" width="90" />
        </mxCell>
        <mxCell id="fqFjoD4bvNdqLyDosjun-6" value="Project" parent="1" style="rounded=0;whiteSpace=wrap;html=1;" vertex="1">
          <mxGeometry as="geometry" y="340" x="586" height="50" width="90" />
        </mxCell>
        <mxCell id="fqFjoD4bvNdqLyDosjun-7" value="Manager" parent="1" style="rhombus;whiteSpace=wrap;html=1;" vertex="1">
          <mxGeometry as="geometry" y="340" x="366" height="40" width="80" />
        </mxCell>
        <mxCell id="fqFjoD4bvNdqLyDosjun-8" value="" parent="1" edge="1" target="fqFjoD4bvNdqLyDosjun-7" style="endArrow=none;html=1;entryX=0;entryY=0.5;entryDx=0;entryDy=0;">
          <mxGeometry as="geometry" relative="1" height="50" width="50">
            <mxPoint as="sourcePoint" y="360" x="236" />
            <mxPoint as="targetPoint" y="200" x="296" />
            <Array as="points" />
          </mxGeometry>
        </mxCell>
        <mxCell id="fqFjoD4bvNdqLyDosjun-9" value="" parent="1" edge="1" style="endArrow=none;html=1;">
          <mxGeometry as="geometry" relative="1" height="50" width="50">
            <mxPoint as="sourcePoint" y="360" x="446" />
            <mxPoint as="targetPoint" y="360" x="586" />
            <Array as="points" />
          </mxGeometry>
        </mxCell>
        <mxCell id="fqFjoD4bvNdqLyDosjun-10" value="" parent="1" edge="1" style="endArrow=none;html=1;entryX=0;entryY=1;entryDx=0;entryDy=0;">
          <mxGeometry as="geometry" relative="1" height="50" width="50">
            <mxPoint as="sourcePoint" y="366" x="236" />
            <mxPoint as="targetPoint" y="366" x="379" />
            <Array as="points" />
          </mxGeometry>
        </mxCell>
        <mxCell id="fqFjoD4bvNdqLyDosjun-11" value="Department" parent="1" style="rounded=0;whiteSpace=wrap;html=1;" vertex="1">
          <mxGeometry as="geometry" y="820" x="151" height="50" width="90" />
        </mxCell>
        <mxCell id="fqFjoD4bvNdqLyDosjun-12" value="Graduate" parent="1" style="rounded=0;whiteSpace=wrap;html=1;" vertex="1">
          <mxGeometry as="geometry" y="820" x="597" height="50" width="95" />
        </mxCell>
        <mxCell id="fqFjoD4bvNdqLyDosjun-13" value="" parent="1" edge="1" target="fqFjoD4bvNdqLyDosjun-14" style="endArrow=none;html=1;entryX=0;entryY=0.5;entryDx=0;entryDy=0;exitX=1;exitY=0.5;exitDx=0;exitDy=0;" source="fqFjoD4bvNdqLyDosjun-11">
          <mxGeometry as="geometry" relative="1" height="50" width="50">
            <mxPoint as="sourcePoint" y="920" x="246" />
            <mxPoint as="targetPoint" y="800" x="296" />
            <Array as="points" />
          </mxGeometry>
        </mxCell>
        <mxCell id="fqFjoD4bvNdqLyDosjun-14" value="works_On" parent="1" style="rhombus;whiteSpace=wrap;html=1;" vertex="1">
          <mxGeometry as="geometry" y="820" x="371" height="50" width="85" />
        </mxCell>
        <mxCell id="fqFjoD4bvNdqLyDosjun-15" value="" parent="1" edge="1" style="endArrow=none;html=1;entryX=0;entryY=0.5;entryDx=0;entryDy=0;">
          <mxGeometry as="geometry" relative="1" height="50" width="50">
            <mxPoint as="sourcePoint" y="845" x="452" />
            <mxPoint as="targetPoint" y="845" x="598" />
            <Array as="points" />
          </mxGeometry>
        </mxCell>
        <mxCell id="fqFjoD4bvNdqLyDosjun-16" value="" parent="1" edge="1" target="fqFjoD4bvNdqLyDosjun-17" style="endArrow=none;html=1;entryX=0.5;entryY=1;entryDx=0;entryDy=0;">
          <mxGeometry as="geometry" relative="1" height="50" width="50">
            <mxPoint as="sourcePoint" y="820" x="631" />
            <mxPoint as="targetPoint" y="590" x="630.5" />
            <Array as="points" />
          </mxGeometry>
        </mxCell>
        <mxCell id="fqFjoD4bvNdqLyDosjun-17" value="Works_On" parent="1" style="rhombus;whiteSpace=wrap;html=1;" vertex="1">
          <mxGeometry as="geometry" y="560" x="591" height="72.25" width="80" />
        </mxCell>
        <mxCell id="fqFjoD4bvNdqLyDosjun-18" value="" parent="1" edge="1" target="fqFjoD4bvNdqLyDosjun-6" style="endArrow=none;html=1;exitX=0.5;exitY=0;exitDx=0;exitDy=0;" source="fqFjoD4bvNdqLyDosjun-17">
          <mxGeometry as="geometry" relative="1" height="50" width="50">
            <mxPoint as="sourcePoint" y="600" x="631" />
            <mxPoint as="targetPoint" y="393" x="631" />
            <Array as="points">
              <mxPoint y="490" x="631" />
            </Array>
          </mxGeometry>
        </mxCell>
        <mxCell id="fqFjoD4bvNdqLyDosjun-19" value="" parent="1" edge="1" style="endArrow=none;html=1;exitX=0.5;exitY=0;exitDx=0;exitDy=0;">
          <mxGeometry as="geometry" relative="1" height="50" width="50">
            <mxPoint as="sourcePoint" y="821" x="191" />
            <mxPoint as="targetPoint" y="631" x="191" />
            <Array as="points" />
          </mxGeometry>
        </mxCell>
        <mxCell id="fqFjoD4bvNdqLyDosjun-20" value="Run" parent="1" style="rhombus;whiteSpace=wrap;html=1;" vertex="1">
          <mxGeometry as="geometry" y="564.5" x="151" height="65.5" width="80" />
        </mxCell>
        <mxCell id="fqFjoD4bvNdqLyDosjun-21" value="" parent="1" edge="1" target="fqFjoD4bvNdqLyDosjun-5" style="endArrow=none;html=1;entryX=0.5;entryY=1;entryDx=0;entryDy=0;">
          <mxGeometry as="geometry" relative="1" height="50" width="50">
            <mxPoint as="sourcePoint" y="563" x="191" />
            <mxPoint as="targetPoint" y="393" x="191" />
            <Array as="points" />
          </mxGeometry>
        </mxCell>
        <mxCell id="fqFjoD4bvNdqLyDosjun-22" value="" parent="1" edge="1" style="endArrow=none;html=1;">
          <mxGeometry as="geometry" relative="1" height="50" width="50">
            <mxPoint as="sourcePoint" y="820" x="196" />
            <mxPoint as="targetPoint" y="627" x="196" />
            <Array as="points" />
          </mxGeometry>
        </mxCell>
        <mxCell id="fqFjoD4bvNdqLyDosjun-23" value="" parent="1" edge="1" style="endArrow=none;html=1;">
          <mxGeometry as="geometry" relative="1" height="50" width="50">
            <mxPoint as="sourcePoint" y="564" x="637" />
            <mxPoint as="targetPoint" y="390" x="637" />
            <Array as="points">
              <mxPoint y="488.5" x="637" />
            </Array>
          </mxGeometry>
        </mxCell>
        <mxCell id="fqFjoD4bvNdqLyDosjun-24" value="" parent="1" edge="1" target="fqFjoD4bvNdqLyDosjun-14" style="endArrow=none;html=1;entryX=0;entryY=0.5;entryDx=0;entryDy=0;">
          <mxGeometry as="geometry" relative="1" height="50" width="50">
            <mxPoint as="sourcePoint" y="845" x="241" />
            <mxPoint as="targetPoint" y="845" x="381" />
            <Array as="points" />
          </mxGeometry>
        </mxCell>
        <mxCell id="fqFjoD4bvNdqLyDosjun-27" value="" parent="1" edge="1" style="endArrow=none;html=1;exitX=0.5;exitY=0;exitDx=0;exitDy=0;" source="NwAWpvBv4_DPWViQor-r-1">
          <mxGeometry as="geometry" relative="1" height="50" width="50">
            <mxPoint as="sourcePoint" y="930" x="589" />
            <mxPoint as="targetPoint" y="871" x="639" />
            <Array as="points" />
          </mxGeometry>
        </mxCell>
        <mxCell id="fqFjoD4bvNdqLyDosjun-28" value="" parent="1" edge="1" style="endArrow=none;html=1;">
          <mxGeometry as="geometry" relative="1" height="50" width="50">
            <mxPoint as="sourcePoint" y="851" x="242" />
            <mxPoint as="targetPoint" y="851" x="386" />
            <Array as="points" />
          </mxGeometry>
        </mxCell>
        <mxCell id="fqFjoD4bvNdqLyDosjun-30" value="" parent="1" edge="1" style="endArrow=none;html=1;entryX=0.9;entryY=0.65;entryDx=0;entryDy=0;entryPerimeter=0;">
          <mxGeometry as="geometry" relative="1" height="50" width="50">
            <mxPoint as="sourcePoint" y="980" x="709" />
            <mxPoint as="targetPoint" y="980" x="604" />
            <Array as="points" />
          </mxGeometry>
        </mxCell>
        <mxCell id="fqFjoD4bvNdqLyDosjun-32" value="" parent="1" edge="1" style="endArrow=none;html=1;entryX=1;entryY=0.5;entryDx=0;entryDy=0;">
          <mxGeometry as="geometry" relative="1" height="50" width="50">
            <mxPoint as="sourcePoint" y="974" x="710" />
            <mxPoint as="targetPoint" y="974" x="612" />
            <Array as="points" />
          </mxGeometry>
        </mxCell>
        <mxCell id="fqFjoD4bvNdqLyDosjun-33" value="Works_On" parent="1" style="rhombus;whiteSpace=wrap;html=1;" vertex="1">
          <mxGeometry as="geometry" y="510" x="356" height="100" width="90" />
        </mxCell>
        <mxCell id="fqFjoD4bvNdqLyDosjun-34" value="" parent="1" edge="1" target="fqFjoD4bvNdqLyDosjun-5" style="endArrow=none;html=1;entryX=0.622;entryY=1;entryDx=0;entryDy=0;exitX=0;exitY=0.5;exitDx=0;exitDy=0;entryPerimeter=0;" source="fqFjoD4bvNdqLyDosjun-33">
          <mxGeometry as="geometry" relative="1" height="50" width="50">
            <mxPoint as="sourcePoint" y="540" x="326" />
            <mxPoint as="targetPoint" y="490" x="376" />
          </mxGeometry>
        </mxCell>
        <mxCell id="fqFjoD4bvNdqLyDosjun-35" value="" parent="1" edge="1" style="endArrow=none;html=1;">
          <mxGeometry as="geometry" relative="1" height="50" width="50">
            <mxPoint as="sourcePoint" y="555" x="441" />
            <mxPoint as="targetPoint" y="390" x="597" />
          </mxGeometry>
        </mxCell>
        <mxCell id="fqFjoD4bvNdqLyDosjun-36" value="" parent="1" edge="1" target="fqFjoD4bvNdqLyDosjun-6" style="endArrow=none;html=1;entryX=0.178;entryY=1.02;entryDx=0;entryDy=0;entryPerimeter=0;">
          <mxGeometry as="geometry" relative="1" height="50" width="50">
            <mxPoint as="sourcePoint" y="560" x="446" />
            <mxPoint as="targetPoint" y="410" x="586" />
          </mxGeometry>
        </mxCell>
        <mxCell id="fqFjoD4bvNdqLyDosjun-37" value="Project Investigator" parent="1" style="text;html=1;strokeColor=none;fillColor=none;align=center;verticalAlign=middle;whiteSpace=wrap;rounded=0;" vertex="1">
          <mxGeometry as="geometry" y="370" x="266" height="20" width="60" />
        </mxCell>
        <mxCell id="fqFjoD4bvNdqLyDosjun-38" value="Project" parent="1" style="text;html=1;strokeColor=none;fillColor=none;align=center;verticalAlign=middle;whiteSpace=wrap;rounded=0;" vertex="1">
          <mxGeometry as="geometry" y="370" x="486" height="20" width="60" />
        </mxCell>
        <mxCell id="fqFjoD4bvNdqLyDosjun-39" value="Co-Investigator" parent="1" style="text;html=1;strokeColor=none;fillColor=none;align=center;verticalAlign=middle;whiteSpace=wrap;rounded=0;rotation=45;" vertex="1">
          <mxGeometry as="geometry" y="487" x="231" height="20" width="90" />
        </mxCell>
        <mxCell id="fqFjoD4bvNdqLyDosjun-40" value="Project" parent="1" style="text;html=1;strokeColor=none;fillColor=none;align=center;verticalAlign=middle;whiteSpace=wrap;rounded=0;rotation=-45;" vertex="1">
          <mxGeometry as="geometry" y="484" x="502" height="20" width="60" />
        </mxCell>
        <mxCell id="fqFjoD4bvNdqLyDosjun-42" value="Research Assistant" parent="1" style="text;html=1;strokeColor=none;fillColor=none;align=center;verticalAlign=middle;whiteSpace=wrap;rounded=0;rotation=-90;" vertex="1">
          <mxGeometry as="geometry" y="699.6300000000001" x="579" height="25.37" width="125.75" />
        </mxCell>
        <mxCell id="fqFjoD4bvNdqLyDosjun-44" value="Graduate" parent="1" style="text;html=1;strokeColor=none;fillColor=none;align=center;verticalAlign=middle;whiteSpace=wrap;rounded=0;rotation=0;" vertex="1">
          <mxGeometry as="geometry" y="850" x="486" height="20" width="73" />
        </mxCell>
        <mxCell id="fqFjoD4bvNdqLyDosjun-45" value="Chairman" parent="1" style="text;html=1;strokeColor=none;fillColor=none;align=center;verticalAlign=middle;whiteSpace=wrap;rounded=0;rotation=-90;" vertex="1">
          <mxGeometry as="geometry" y="705" x="139" height="20" width="73" />
        </mxCell>
        <mxCell id="fqFjoD4bvNdqLyDosjun-46" value="Proffesor" parent="1" style="text;html=1;strokeColor=none;fillColor=none;align=center;verticalAlign=middle;whiteSpace=wrap;rounded=0;rotation=-90;" vertex="1">
          <mxGeometry as="geometry" y="464" x="139" height="20" width="73" />
        </mxCell>
        <mxCell id="fqFjoD4bvNdqLyDosjun-47" value="Student Advisor" parent="1" style="text;html=1;strokeColor=none;fillColor=none;align=center;verticalAlign=middle;whiteSpace=wrap;rounded=0;rotation=0;" vertex="1">
          <mxGeometry as="geometry" y="980" x="612" height="20" width="90" />
        </mxCell>
        <mxCell id="fqFjoD4bvNdqLyDosjun-48" value="Graduate" parent="1" style="text;html=1;strokeColor=none;fillColor=none;align=center;verticalAlign=middle;whiteSpace=wrap;rounded=0;rotation=-45;" vertex="1">
          <mxGeometry as="geometry" y="895" x="546" height="20" width="73" />
        </mxCell>
        <mxCell id="a3pUnFV5iKH_uMltHzpQ-2" value="Rank" parent="1" style="ellipse;whiteSpace=wrap;html=1;" vertex="1">
          <mxGeometry as="geometry" y="220" x="139" height="30" width="70" />
        </mxCell>
        <mxCell id="a3pUnFV5iKH_uMltHzpQ-3" value="SSN" parent="1" style="ellipse;whiteSpace=wrap;html=1;align=center;fontStyle=4;" vertex="1">
          <mxGeometry as="geometry" y="300" x="29" height="30" width="70" />
        </mxCell>
        <mxCell id="a3pUnFV5iKH_uMltHzpQ-4" value="Name" parent="1" style="ellipse;whiteSpace=wrap;html=1;align=center;" vertex="1">
          <mxGeometry as="geometry" y="210" x="226" height="30" width="68" />
        </mxCell>
        <mxCell id="a3pUnFV5iKH_uMltHzpQ-5" value="Age" parent="1" style="ellipse;whiteSpace=wrap;html=1;align=center;dashed=1;" vertex="1">
          <mxGeometry as="geometry" y="250" x="294" height="30" width="70" />
        </mxCell>
        <mxCell id="a3pUnFV5iKH_uMltHzpQ-7" value="Research Speciality" parent="1" style="ellipse;whiteSpace=wrap;html=1;align=center;" vertex="1">
          <mxGeometry as="geometry" y="240" x="9" height="30" width="130" />
        </mxCell>
        <mxCell id="a3pUnFV5iKH_uMltHzpQ-14" value="" parent="1" edge="1" style="endArrow=none;dashed=1;html=1;">
          <mxGeometry as="geometry" relative="1" height="50" width="50">
            <mxPoint as="sourcePoint" y="233" x="240" />
            <mxPoint as="targetPoint" y="233" x="280" />
          </mxGeometry>
        </mxCell>
        <mxCell id="a3pUnFV5iKH_uMltHzpQ-15" value="" parent="1" edge="1" target="a3pUnFV5iKH_uMltHzpQ-3" style="endArrow=none;html=1;entryX=0.614;entryY=0.967;entryDx=0;entryDy=0;entryPerimeter=0;exitX=0;exitY=0.5;exitDx=0;exitDy=0;" source="fqFjoD4bvNdqLyDosjun-5">
          <mxGeometry as="geometry" relative="1" height="50" width="50">
            <mxPoint as="sourcePoint" y="390" x="69" />
            <mxPoint as="targetPoint" y="340" x="119" />
          </mxGeometry>
        </mxCell>
        <mxCell id="a3pUnFV5iKH_uMltHzpQ-16" value="" parent="1" edge="1" target="a3pUnFV5iKH_uMltHzpQ-7" style="endArrow=none;html=1;entryX=0.538;entryY=0.967;entryDx=0;entryDy=0;entryPerimeter=0;exitX=0.144;exitY=0;exitDx=0;exitDy=0;exitPerimeter=0;" source="fqFjoD4bvNdqLyDosjun-5">
          <mxGeometry as="geometry" relative="1" height="50" width="50">
            <mxPoint as="sourcePoint" y="335" x="149" />
            <mxPoint as="targetPoint" y="290" x="99.00000000000003" />
          </mxGeometry>
        </mxCell>
        <mxCell id="a3pUnFV5iKH_uMltHzpQ-17" value="" parent="1" edge="1" target="a3pUnFV5iKH_uMltHzpQ-2" style="endArrow=none;html=1;entryX=0.5;entryY=1;entryDx=0;entryDy=0;">
          <mxGeometry as="geometry" relative="1" height="50" width="50">
            <mxPoint as="sourcePoint" y="340" x="179" />
            <mxPoint as="targetPoint" y="240" x="159" />
          </mxGeometry>
        </mxCell>
        <mxCell id="a3pUnFV5iKH_uMltHzpQ-18" value="" parent="1" edge="1" target="a3pUnFV5iKH_uMltHzpQ-4" style="endArrow=none;html=1;entryX=0.309;entryY=0.933;entryDx=0;entryDy=0;entryPerimeter=0;exitX=0.611;exitY=-0.02;exitDx=0;exitDy=0;exitPerimeter=0;" source="fqFjoD4bvNdqLyDosjun-5">
          <mxGeometry as="geometry" relative="1" height="50" width="50">
            <mxPoint as="sourcePoint" y="336" x="210" />
            <mxPoint as="targetPoint" y="264" x="219" />
          </mxGeometry>
        </mxCell>
        <mxCell id="a3pUnFV5iKH_uMltHzpQ-19" value="" parent="1" edge="1" target="a3pUnFV5iKH_uMltHzpQ-5" style="endArrow=none;html=1;exitX=0.75;exitY=0;exitDx=0;exitDy=0;entryX=0.029;entryY=0.733;entryDx=0;entryDy=0;entryPerimeter=0;" source="fqFjoD4bvNdqLyDosjun-5">
          <mxGeometry as="geometry" relative="1" height="50" width="50">
            <mxPoint as="sourcePoint" y="330" x="229" />
            <mxPoint as="targetPoint" y="290" x="239" />
          </mxGeometry>
        </mxCell>
        <mxCell id="a3pUnFV5iKH_uMltHzpQ-20" value="Budget" parent="1" style="ellipse;whiteSpace=wrap;html=1;align=center;direction=west;rotation=0;" vertex="1">
          <mxGeometry as="geometry" y="250" x="509" height="30" width="63" />
        </mxCell>
        <mxCell id="a3pUnFV5iKH_uMltHzpQ-22" value="" parent="1" edge="1" style="endArrow=none;dashed=1;html=1;" source="a3pUnFV5iKH_uMltHzpQ-21">
          <mxGeometry as="geometry" relative="1" height="50" width="50">
            <mxPoint as="sourcePoint" y="244.5" x="562" />
            <mxPoint as="targetPoint" y="244.5" x="636.5" />
          </mxGeometry>
        </mxCell>
        <mxCell id="a3pUnFV5iKH_uMltHzpQ-24" value="Project Number" parent="1" style="ellipse;whiteSpace=wrap;html=1;align=center;fontStyle=4;" vertex="1">
          <mxGeometry as="geometry" y="230" x="686" height="30" width="100" />
        </mxCell>
        <mxCell id="a3pUnFV5iKH_uMltHzpQ-27" value="End_date" parent="1" style="ellipse;shape=doubleEllipse;margin=3;whiteSpace=wrap;html=1;align=center;" vertex="1">
          <mxGeometry as="geometry" y="290" x="729" height="40" width="90" />
        </mxCell>
        <mxCell id="a3pUnFV5iKH_uMltHzpQ-28" value="Start_date" parent="1" style="ellipse;shape=doubleEllipse;margin=3;whiteSpace=wrap;html=1;align=center;" vertex="1">
          <mxGeometry as="geometry" y="370" x="739" height="40" width="80" />
        </mxCell>
        <mxCell id="a3pUnFV5iKH_uMltHzpQ-21" value="Sponsor Name" parent="1" style="ellipse;whiteSpace=wrap;html=1;align=center;" vertex="1">
          <mxGeometry as="geometry" y="230" x="559" height="30" width="102.5" />
        </mxCell>
        <mxCell id="a3pUnFV5iKH_uMltHzpQ-29" value="" parent="1" edge="1" target="a3pUnFV5iKH_uMltHzpQ-21" style="endArrow=none;dashed=1;html=1;">
          <mxGeometry as="geometry" relative="1" height="50" width="50">
            <mxPoint as="sourcePoint" y="244.5" x="562" />
            <mxPoint as="targetPoint" y="244.5" x="636.5" />
          </mxGeometry>
        </mxCell>
        <mxCell id="a3pUnFV5iKH_uMltHzpQ-30" value="" parent="1" edge="1" target="a3pUnFV5iKH_uMltHzpQ-28" style="endArrow=none;html=1;entryX=0;entryY=0.5;entryDx=0;entryDy=0;exitX=1;exitY=0.75;exitDx=0;exitDy=0;" source="fqFjoD4bvNdqLyDosjun-6">
          <mxGeometry as="geometry" relative="1" height="50" width="50">
            <mxPoint as="sourcePoint" y="390" x="676" />
            <mxPoint as="targetPoint" y="340" x="726" />
          </mxGeometry>
        </mxCell>
        <mxCell id="a3pUnFV5iKH_uMltHzpQ-31" value="" parent="1" edge="1" target="a3pUnFV5iKH_uMltHzpQ-27" style="endArrow=none;html=1;entryX=0;entryY=1;entryDx=0;entryDy=0;">
          <mxGeometry as="geometry" relative="1" height="50" width="50">
            <mxPoint as="sourcePoint" y="350" x="676" />
            <mxPoint as="targetPoint" y="350" x="739" />
          </mxGeometry>
        </mxCell>
        <mxCell id="a3pUnFV5iKH_uMltHzpQ-32" value="" parent="1" edge="1" target="a3pUnFV5iKH_uMltHzpQ-24" style="endArrow=none;html=1;">
          <mxGeometry as="geometry" relative="1" height="50" width="50">
            <mxPoint as="sourcePoint" y="340" x="643.36" />
            <mxPoint as="targetPoint" y="314.14213562373106" x="711.0046609406726" />
          </mxGeometry>
        </mxCell>
        <mxCell id="a3pUnFV5iKH_uMltHzpQ-33" value="" parent="1" edge="1" target="a3pUnFV5iKH_uMltHzpQ-21" style="endArrow=none;html=1;entryX=0.5;entryY=1;entryDx=0;entryDy=0;">
          <mxGeometry as="geometry" relative="1" height="50" width="50">
            <mxPoint as="sourcePoint" y="340" x="629" />
            <mxPoint as="targetPoint" y="259.4044073727191" x="682.0004686495772" />
          </mxGeometry>
        </mxCell>
        <mxCell id="a3pUnFV5iKH_uMltHzpQ-34" value="" parent="1" edge="1" style="endArrow=none;html=1;entryX=0.5;entryY=1;entryDx=0;entryDy=0;exitX=0.25;exitY=0;exitDx=0;exitDy=0;" source="fqFjoD4bvNdqLyDosjun-6">
          <mxGeometry as="geometry" relative="1" height="50" width="50">
            <mxPoint as="sourcePoint" y="336" x="599" />
            <mxPoint as="targetPoint" y="280" x="546" />
          </mxGeometry>
        </mxCell>
        <mxCell id="a3pUnFV5iKH_uMltHzpQ-35" value="Name" parent="1" style="ellipse;whiteSpace=wrap;html=1;align=center;" vertex="1">
          <mxGeometry as="geometry" y="940" x="151" height="30" width="78" />
        </mxCell>
        <mxCell id="a3pUnFV5iKH_uMltHzpQ-36" value="" parent="1" edge="1" style="endArrow=none;dashed=1;html=1;">
          <mxGeometry as="geometry" relative="1" height="50" width="50">
            <mxPoint as="sourcePoint" y="958" x="190" />
            <mxPoint as="targetPoint" y="958" x="226" />
          </mxGeometry>
        </mxCell>
        <mxCell id="a3pUnFV5iKH_uMltHzpQ-37" value="Department Number" parent="1" style="ellipse;whiteSpace=wrap;html=1;align=center;fontStyle=4;" vertex="1">
          <mxGeometry as="geometry" y="910" x="259" height="40" width="130" />
        </mxCell>
        <mxCell id="a3pUnFV5iKH_uMltHzpQ-38" value="Main Office" parent="1" style="ellipse;whiteSpace=wrap;html=1;align=center;" vertex="1">
          <mxGeometry as="geometry" y="910" x="19" height="30" width="90" />
        </mxCell>
        <mxCell id="a3pUnFV5iKH_uMltHzpQ-39" value="" parent="1" edge="1" target="a3pUnFV5iKH_uMltHzpQ-37" style="endArrow=none;html=1;exitX=0.75;exitY=1;exitDx=0;exitDy=0;" source="fqFjoD4bvNdqLyDosjun-11">
          <mxGeometry as="geometry" relative="1" height="50" width="50">
            <mxPoint as="sourcePoint" y="1030" x="219" />
            <mxPoint as="targetPoint" y="980" x="269" />
          </mxGeometry>
        </mxCell>
        <mxCell id="a3pUnFV5iKH_uMltHzpQ-40" value="" parent="1" edge="1" target="a3pUnFV5iKH_uMltHzpQ-35" style="endArrow=none;html=1;exitX=0.75;exitY=1;exitDx=0;exitDy=0;entryX=0.5;entryY=0;entryDx=0;entryDy=0;">
          <mxGeometry as="geometry" relative="1" height="50" width="50">
            <mxPoint as="sourcePoint" y="870" x="191.32" />
            <mxPoint as="targetPoint" y="912.3905780015552" x="266.0035115027218" />
          </mxGeometry>
        </mxCell>
        <mxCell id="a3pUnFV5iKH_uMltHzpQ-41" value="" parent="1" edge="1" target="a3pUnFV5iKH_uMltHzpQ-38" style="endArrow=none;html=1;exitX=0.75;exitY=1;exitDx=0;exitDy=0;entryX=1;entryY=0;entryDx=0;entryDy=0;">
          <mxGeometry as="geometry" relative="1" height="50" width="50">
            <mxPoint as="sourcePoint" y="870" x="172.31999999999994" />
            <mxPoint as="targetPoint" y="937" x="189" />
          </mxGeometry>
        </mxCell>
        <mxCell id="a3pUnFV5iKH_uMltHzpQ-42" value="SSN" parent="1" style="ellipse;whiteSpace=wrap;html=1;align=center;fontStyle=4;" vertex="1">
          <mxGeometry as="geometry" y="890" x="729" height="30" width="72" />
        </mxCell>
        <mxCell id="a3pUnFV5iKH_uMltHzpQ-44" value="Age" parent="1" style="ellipse;whiteSpace=wrap;html=1;align=center;dashed=1;" vertex="1">
          <mxGeometry as="geometry" y="760" x="741" height="30" width="68" />
        </mxCell>
        <mxCell id="a3pUnFV5iKH_uMltHzpQ-45" value="Degree Program" parent="1" style="ellipse;whiteSpace=wrap;html=1;align=center;" vertex="1">
          <mxGeometry as="geometry" y="688.63" x="686" height="30" width="120" />
        </mxCell>
        <mxCell id="a3pUnFV5iKH_uMltHzpQ-46" value="Name" parent="1" style="ellipse;whiteSpace=wrap;html=1;align=center;" vertex="1">
          <mxGeometry as="geometry" y="823.5" x="744" height="30" width="70" />
        </mxCell>
        <mxCell id="a3pUnFV5iKH_uMltHzpQ-48" value="" parent="1" edge="1" style="endArrow=none;dashed=1;html=1;">
          <mxGeometry as="geometry" relative="1" height="50" width="50">
            <mxPoint as="sourcePoint" y="846" x="760" />
            <mxPoint as="targetPoint" y="846" x="800" />
          </mxGeometry>
        </mxCell>
        <mxCell id="a3pUnFV5iKH_uMltHzpQ-49" value="" parent="1" edge="1" style="endArrow=none;dashed=1;html=1;">
          <mxGeometry as="geometry" relative="1" height="50" width="50">
            <mxPoint as="sourcePoint" y="710.63" x="703" />
            <mxPoint as="targetPoint" y="710.63" x="793" />
          </mxGeometry>
        </mxCell>
        <mxCell id="a3pUnFV5iKH_uMltHzpQ-50" value="" parent="1" edge="1" target="a3pUnFV5iKH_uMltHzpQ-45" style="endArrow=none;html=1;entryX=0.217;entryY=0.979;entryDx=0;entryDy=0;entryPerimeter=0;">
          <mxGeometry as="geometry" relative="1" height="50" width="50">
            <mxPoint as="sourcePoint" y="820" x="672" />
            <mxPoint as="targetPoint" y="770" x="722" />
          </mxGeometry>
        </mxCell>
        <mxCell id="a3pUnFV5iKH_uMltHzpQ-51" value="" parent="1" edge="1" target="a3pUnFV5iKH_uMltHzpQ-44" style="endArrow=none;html=1;entryX=0.059;entryY=0.767;entryDx=0;entryDy=0;entryPerimeter=0;exitX=1;exitY=0.5;exitDx=0;exitDy=0;" source="fqFjoD4bvNdqLyDosjun-12">
          <mxGeometry as="geometry" relative="1" height="50" width="50">
            <mxPoint as="sourcePoint" y="830" x="689" />
            <mxPoint as="targetPoint" y="787" x="728" />
          </mxGeometry>
        </mxCell>
        <mxCell id="a3pUnFV5iKH_uMltHzpQ-52" value="" parent="1" edge="1" style="endArrow=none;html=1;exitX=1;exitY=0.75;exitDx=0;exitDy=0;" source="fqFjoD4bvNdqLyDosjun-12">
          <mxGeometry as="geometry" relative="1" height="50" width="50">
            <mxPoint as="sourcePoint" y="855" x="696" />
            <mxPoint as="targetPoint" y="845" x="749" />
          </mxGeometry>
        </mxCell>
        <mxCell id="a3pUnFV5iKH_uMltHzpQ-53" value="" parent="1" edge="1" target="a3pUnFV5iKH_uMltHzpQ-42" style="endArrow=none;html=1;exitX=0.75;exitY=1;exitDx=0;exitDy=0;entryX=0;entryY=0.5;entryDx=0;entryDy=0;" source="fqFjoD4bvNdqLyDosjun-12">
          <mxGeometry as="geometry" relative="1" height="50" width="50">
            <mxPoint as="sourcePoint" y="872" x="669" />
            <mxPoint as="targetPoint" y="890" x="739" />
          </mxGeometry>
        </mxCell>
        <mxCell id="a3pUnFV5iKH_uMltHzpQ-54" value="Works_In" parent="1" style="shape=rhombus;perimeter=rhombusPerimeter;whiteSpace=wrap;html=1;align=center;" vertex="1">
          <mxGeometry as="geometry" y="665" x="266" height="60" width="102" />
        </mxCell>
        <mxCell id="a3pUnFV5iKH_uMltHzpQ-55" value="" parent="1" edge="1" style="endArrow=none;html=1;exitX=0.5;exitY=0;exitDx=0;exitDy=0;" source="a3pUnFV5iKH_uMltHzpQ-54">
          <mxGeometry as="geometry" relative="1" height="50" width="50">
            <mxPoint as="sourcePoint" y="640" x="399" />
            <mxPoint as="targetPoint" y="390" x="199" />
          </mxGeometry>
        </mxCell>
        <mxCell id="a3pUnFV5iKH_uMltHzpQ-56" value="" parent="1" edge="1" target="fqFjoD4bvNdqLyDosjun-11" style="endArrow=none;html=1;entryX=0.75;entryY=0;entryDx=0;entryDy=0;exitX=0.5;exitY=1;exitDx=0;exitDy=0;">
          <mxGeometry as="geometry" relative="1" height="50" width="50">
            <mxPoint as="sourcePoint" y="724" x="318" />
            <mxPoint as="targetPoint" y="817" x="209.96000000000004" />
          </mxGeometry>
        </mxCell>
        <mxCell id="a3pUnFV5iKH_uMltHzpQ-57" value="Percentage" parent="1" style="ellipse;whiteSpace=wrap;html=1;align=center;dashed=1;" vertex="1">
          <mxGeometry as="geometry" y="710" x="399" height="30" width="80" />
        </mxCell>
        <mxCell id="a3pUnFV5iKH_uMltHzpQ-60" value="" parent="1" edge="1" target="a3pUnFV5iKH_uMltHzpQ-57" style="endArrow=none;html=1;exitX=1;exitY=1;exitDx=0;exitDy=0;" source="a3pUnFV5iKH_uMltHzpQ-54">
          <mxGeometry as="geometry" relative="1" height="50" width="50">
            <mxPoint as="sourcePoint" y="800" x="399" />
            <mxPoint as="targetPoint" y="750" x="449" />
          </mxGeometry>
        </mxCell>
        <mxCell id="a3pUnFV5iKH_uMltHzpQ-61" value="Senior Graduate" parent="1" style="shape=ext;margin=3;double=1;whiteSpace=wrap;html=1;align=center;" vertex="1">
          <mxGeometry as="geometry" y="955" x="706" height="50" width="100" />
        </mxCell>
        <mxCell id="a3pUnFV5iKH_uMltHzpQ-65" value="Department" parent="1" style="text;html=1;strokeColor=none;fillColor=none;align=center;verticalAlign=middle;whiteSpace=wrap;rounded=0;rotation=0;" vertex="1">
          <mxGeometry as="geometry" y="850" x="266" height="20" width="73" />
        </mxCell>
        <mxCell id="NwAWpvBv4_DPWViQor-r-1" value="Relationship" parent="1" style="shape=rhombus;double=1;perimeter=rhombusPerimeter;whiteSpace=wrap;html=1;align=center;" vertex="1">
          <mxGeometry as="geometry" y="945" x="502" height="60" width="110" />
        </mxCell>
        <mxCell id="NwAWpvBv4_DPWViQor-r-4" value="1" parent="1" style="text;html=1;strokeColor=none;fillColor=none;align=center;verticalAlign=middle;whiteSpace=wrap;rounded=0;" vertex="1">
          <mxGeometry as="geometry" y="344" x="492.5" height="20" width="60" />
        </mxCell>
        <mxCell id="NwAWpvBv4_DPWViQor-r-5" value="1" parent="1" style="text;html=1;strokeColor=none;fillColor=none;align=center;verticalAlign=middle;whiteSpace=wrap;rounded=0;" vertex="1">
          <mxGeometry as="geometry" y="344" x="266" height="20" width="60" />
        </mxCell>
        <mxCell id="NwAWpvBv4_DPWViQor-r-7" value="1" parent="1" style="text;html=1;strokeColor=none;fillColor=none;align=center;verticalAlign=middle;whiteSpace=wrap;rounded=0;rotation=45;" vertex="1">
          <mxGeometry as="geometry" y="459.5" x="253" height="20" width="60" />
        </mxCell>
        <mxCell id="NwAWpvBv4_DPWViQor-r-8" value="M" parent="1" style="text;html=1;strokeColor=none;fillColor=none;align=center;verticalAlign=middle;whiteSpace=wrap;rounded=0;rotation=-45;" vertex="1">
          <mxGeometry as="geometry" y="463.5" x="479" height="20" width="60" />
        </mxCell>
        <mxCell id="NwAWpvBv4_DPWViQor-r-9" value="1" parent="1" style="text;html=1;strokeColor=none;fillColor=none;align=center;verticalAlign=middle;whiteSpace=wrap;rounded=0;rotation=90;" vertex="1">
          <mxGeometry as="geometry" y="504" x="168" height="20" width="60" />
        </mxCell>
        <mxCell id="NwAWpvBv4_DPWViQor-r-10" value="1" parent="1" style="text;html=1;strokeColor=none;fillColor=none;align=center;verticalAlign=middle;whiteSpace=wrap;rounded=0;rotation=90;" vertex="1">
          <mxGeometry as="geometry" y="710" x="174" height="20" width="60" />
        </mxCell>
        <mxCell id="NwAWpvBv4_DPWViQor-r-11" value="1" parent="1" style="text;html=1;strokeColor=none;fillColor=none;align=center;verticalAlign=middle;whiteSpace=wrap;rounded=0;rotation=60;" vertex="1">
          <mxGeometry as="geometry" y="564.5" x="257" height="20" width="60" />
        </mxCell>
        <mxCell id="NwAWpvBv4_DPWViQor-r-12" value="M" parent="1" style="text;html=1;strokeColor=none;fillColor=none;align=center;verticalAlign=middle;whiteSpace=wrap;rounded=0;rotation=-225;" vertex="1">
          <mxGeometry as="geometry" y="751" x="262" height="20" width="60" />
        </mxCell>
        <mxCell id="NwAWpvBv4_DPWViQor-r-15" value="1" parent="1" style="text;html=1;strokeColor=none;fillColor=none;align=center;verticalAlign=middle;whiteSpace=wrap;rounded=0;rotation=0;" vertex="1">
          <mxGeometry as="geometry" y="829" x="294" height="19" width="60" />
        </mxCell>
        <mxCell id="NwAWpvBv4_DPWViQor-r-16" value="1" parent="1" style="text;html=1;strokeColor=none;fillColor=none;align=center;verticalAlign=middle;whiteSpace=wrap;rounded=0;rotation=0;" vertex="1">
          <mxGeometry as="geometry" y="829" x="499" height="19" width="60" />
        </mxCell>
        <mxCell id="NwAWpvBv4_DPWViQor-r-17" value="1" parent="1" style="text;html=1;strokeColor=none;fillColor=none;align=center;verticalAlign=middle;whiteSpace=wrap;rounded=0;rotation=-90;" vertex="1">
          <mxGeometry as="geometry" y="699.63" x="594" height="19" width="60" />
        </mxCell>
        <mxCell id="NwAWpvBv4_DPWViQor-r-18" value="M" parent="1" style="text;html=1;strokeColor=none;fillColor=none;align=center;verticalAlign=middle;whiteSpace=wrap;rounded=0;rotation=-90;" vertex="1">
          <mxGeometry as="geometry" y="479.5" x="591" height="19" width="60" />
        </mxCell>
        <mxCell id="Rt8N4zapjzfBvLKmY5ud-4" value="1" parent="1" style="text;html=1;strokeColor=none;fillColor=none;align=center;verticalAlign=middle;whiteSpace=wrap;rounded=0;rotation=-225;" vertex="1">
          <mxGeometry as="geometry" y="904.88" x="580.63" height="14.25" width="60" />
        </mxCell>
        <mxCell id="Rt8N4zapjzfBvLKmY5ud-5" value="1" parent="1" style="text;html=1;strokeColor=none;fillColor=none;align=center;verticalAlign=middle;whiteSpace=wrap;rounded=0;rotation=1;" vertex="1">
          <mxGeometry as="geometry" y="961" x="632" height="14.25" width="60" />
        </mxCell>
      </root>
    </mxGraphModel>
  </diagram>
</mxfile>
